<svg version="1.1" xmlns="http://www.w3.org/2000/svg" xmlns:xlink="http://www.w3.org/1999/xlink" width="512.000000pt" height="512.000000pt" viewBox="0,0,256,256"><g fill="#ec5242" fill-rule="nonzero" stroke="none" stroke-width="1" stroke-linecap="butt" stroke-linejoin="miter" stroke-miterlimit="10" stroke-dasharray="" stroke-dashoffset="0" font-family="none" font-weight="none" font-size="none" text-anchor="none" style="mix-blend-mode: normal"><g transform="translate(0.09043,0.04919) scale(0.5,0.5)"><g transform="translate(0,512) scale(0.1,-0.1)"><path d="M1127,5098c-16,-17 -28,-50 -42,-121c-12,-61 -23,-96 -30,-93c-6,2 -46,27 -89,55c-43,28 -90,51 -104,51c-18,0 -53,-28 -133,-107c-126,-124 -130,-136 -76,-218c18,-28 43,-66 55,-86l22,-36l-103,-22c-56,-12 -108,-28 -116,-36c-8,-8 -17,-34 -20,-57l-6,-43l-53,-7c-120,-18 -237,-110 -284,-226l-23,-57l-3,-1189c-2,-715 1,-1216 7,-1258c18,-128 86,-225 199,-280l66,-33l187,-3l187,-4l12,-46c43,-176 179,-326 348,-384c85,-29 260,-32 331,-5c24,10 46,15 49,12c3,-3 -34,-160 -83,-349c-98,-385 -99,-402 -44,-469c91,-111 281,-110 353,1c18,27 67,203 176,632c84,327 154,598 157,602c2,5 58,8 124,8h119v-584v-584l28,-53c22,-43 38,-59 82,-82c47,-25 63,-28 109,-23c69,6 126,45 158,105l23,44v589v588h125c69,0 125,-2 125,-5c0,-32 308,-1200 323,-1228c92,-166 397,-95 397,92c0,33 -236,992 -276,1123c-5,16 33,18 608,20l613,3l62,29c76,35 144,104 181,184l27,57l3,861l3,861l-21,26c-27,34 -80,37 -110,7c-20,-20 -20,-33 -20,-856c0,-598 -3,-848 -11,-875c-16,-52 -64,-108 -113,-130c-39,-18 -100,-19 -1418,-19h-1377l-11,43c-28,109 -79,196 -161,271c-64,60 -118,91 -209,122c-75,25 -224,25 -300,0c-180,-60 -320,-202 -366,-372l-17,-65l-177,3c-173,3 -177,4 -218,30c-22,15 -54,49 -69,75l-28,48v1115v1115l170,3l170,2l13,-29c7,-16 55,-70 107,-120c117,-114 125,-115 243,-35c46,30 85,54 86,52c2,-2 11,-45 21,-96c10,-53 26,-103 37,-117c19,-25 21,-25 177,-25c141,0 160,2 175,18c9,11 25,61 36,113c12,52 22,97 23,101c1,4 40,-17 87,-47c122,-78 123,-78 253,53c59,59 107,113 107,120c0,9 221,12 1037,12h1038l-350,-350l-350,-350l-195,194c-268,267 -261,267 -477,53c-126,-125 -143,-145 -143,-174c0,-43 30,-73 73,-73c28,0 48,16 157,125l125,125l190,-189c104,-104 200,-194 212,-200c28,-14 88,-14 116,0c12,6 262,250 555,543c569,568 557,553 513,607c-17,22 -29,24 -114,27c-79,3 -99,7 -113,23c-25,28 -22,78 6,101c22,18 41,19 286,16c237,-3 265,-5 281,-21c16,-16 18,-43 21,-260c4,-274 -1,-308 -49,-327c-27,-11 -34,-11 -57,7c-25,19 -27,27 -33,118c-5,86 -8,100 -28,117c-13,10 -37,18 -54,18c-28,0 -97,-65 -652,-620l-620,-620l-190,190c-203,204 -226,219 -302,206c-33,-7 -79,-48 -373,-342c-224,-223 -343,-334 -357,-334c-35,0 -73,38 -73,73c0,27 24,55 184,216c115,116 187,196 191,213c6,22 1,33 -24,59c-26,25 -37,30 -59,24c-37,-9 -398,-367 -423,-420c-45,-97 -7,-223 86,-280c62,-38 147,-41 210,-8c22,12 181,163 355,337l315,316l195,-194c125,-125 205,-197 223,-202c16,-3 47,-4 69,-1c39,5 73,38 609,573l567,567l15,-35c39,-93 151,-151 247,-128c68,16 123,59 151,117c24,47 24,53 24,338c0,264 -2,293 -19,325c-26,49 -55,79 -101,103c-38,21 -52,22 -335,22c-287,0 -296,-1 -337,-22c-23,-13 -55,-39 -70,-58l-28,-35h-997h-998v36c0,69 -17,81 -155,110c-44,9 -81,18 -83,19c-2,2 22,41 52,88c34,52 56,96 56,113c0,40 -203,244 -243,244c-15,0 -63,-23 -112,-55c-46,-30 -86,-55 -88,-55c-2,0 -12,37 -21,83c-22,103 -34,135 -57,147c-10,6 -83,10 -164,10c-138,0 -147,-1 -168,-22zM1363,4953c3,-10 13,-53 22,-96c15,-72 19,-80 56,-104c21,-14 58,-28 82,-30c38,-5 51,0 122,46l80,51l43,-43l44,-44l-52,-79c-47,-71 -51,-83 -47,-122c2,-23 16,-60 30,-81c24,-37 32,-41 104,-56c125,-27 114,-18 111,-88l-3,-62l-85,-18c-91,-19 -123,-40 -146,-94c-24,-57 -17,-92 36,-173l49,-75l-43,-44l-44,-43l-79,51c-87,56 -108,60 -168,32c-56,-26 -74,-50 -91,-123c-8,-34 -16,-73 -19,-86c-5,-21 -10,-23 -68,-20l-62,3l-18,85c-19,96 -46,130 -114,149c-58,16 -65,15 -148,-40l-78,-51l-44,45l-45,44l51,78c56,85 60,109 32,170c-27,59 -48,72 -141,92l-85,18l-3,62c-3,70 -13,61 93,83c86,18 102,29 130,83c14,28 25,62 25,75c0,14 -23,61 -51,105l-51,79l43,44l44,44l75,-50c86,-57 119,-62 188,-29c49,24 63,48 82,144c17,89 13,85 79,85c48,0 61,-3 64,-17zM490,4191c0,-54 28,-74 137,-96c48,-9 91,-19 95,-22c4,-2 1,-15 -8,-29l-16,-24h-213h-212l7,38c18,96 97,170 183,172c25,0 27,-3 27,-39zM4090,4217c0,-29 61,-104 102,-126c24,-13 45,-26 47,-28c2,-1 -4,-12 -14,-23c-18,-20 -30,-20 -1171,-20h-1154l-16,25c-9,14 -15,27 -13,29c2,2 47,11 99,21c110,21 140,43 140,100v35h990c817,0 990,-2 990,-13zM1378,1780c115,-27 213,-104 264,-208c31,-62 33,-74 33,-167c0,-89 -3,-107 -29,-162c-35,-77 -113,-153 -193,-191c-50,-23 -71,-27 -153,-27c-83,0 -103,4 -153,27c-73,35 -160,117 -192,182c-48,99 -50,232 -5,333c23,52 101,137 155,168c80,47 187,65 273,45zM1906,1313c-2,-10 -68,-268 -146,-573c-79,-309 -149,-563 -157,-572c-21,-23 -65,-23 -94,1l-23,18l111,434c98,384 115,440 146,487c34,51 68,135 81,195c6,24 11,27 47,27c34,0 40,-3 35,-17zM2558,748l-3,-583l-27,-9c-22,-8 -32,-6 -48,9c-20,18 -20,28 -20,592v573h50h50zM3388,773c78,-307 142,-564 142,-572c0,-49 -87,-70 -114,-28c-8,12 -78,272 -155,577c-78,305 -144,561 -146,568c-3,9 13,12 63,12h67z"></path><path d="M1247,4619c-68,-11 -129,-43 -177,-95c-62,-67 -84,-124 -84,-214c0,-128 66,-233 184,-289c79,-37 183,-37 262,2c72,36 141,111 164,180c77,229 -111,453 -349,416zM1392,4444c117,-75 87,-254 -49,-294c-62,-19 -110,-6 -159,44c-57,56 -67,114 -33,183c50,98 149,126 241,67z"></path><path d="M1250,1560c-28,-28 -32,-55 -28,-180c3,-103 5,-113 27,-131c30,-25 76,-24 101,1c18,18 20,33 20,154c0,133 0,135 -26,155c-34,26 -68,27 -94,1z"></path><path d="M721,3224c-19,-24 -21,-40 -21,-185c0,-169 7,-200 47,-218c16,-7 150,-11 418,-11h394l28,24l28,24v177c0,174 0,177 -24,196c-22,18 -44,19 -436,19h-414zM1468,3033l-3,-68l-307,-3l-308,-2v70v70h310h311z"></path><path d="M744,2668c-22,-10 -44,-47 -44,-74c0,-8 11,-26 25,-39l24,-25h291c277,0 291,1 310,20c30,30 27,83 -6,109c-26,20 -38,21 -303,20c-168,0 -284,-4 -297,-11z"></path><path d="M3475,2285c-14,-13 -25,-36 -25,-50c0,-14 11,-37 25,-50l24,-25h449h449l21,23c31,33 29,80 -4,106c-26,21 -37,21 -471,21h-444z"></path><path d="M2895,1955c-14,-13 -25,-36 -25,-50c0,-14 11,-37 25,-50l24,-25h734c728,0 735,0 761,21c36,28 36,80 0,108c-26,21 -33,21 -761,21h-734z"></path></g></g></g></svg>