<svg version="1.1" xmlns="http://www.w3.org/2000/svg" xmlns:xlink="http://www.w3.org/1999/xlink" width="512.000000pt" height="512.000000pt" viewBox="0,0,256,256"><g fill="#ec5242" fill-rule="nonzero" stroke="none" stroke-width="1" stroke-linecap="butt" stroke-linejoin="miter" stroke-miterlimit="10" stroke-dasharray="" stroke-dashoffset="0" font-family="none" font-weight="none" font-size="none" text-anchor="none" style="mix-blend-mode: normal"><g transform="translate(0,0.10661) scale(0.5,0.5)"><g transform="translate(0,512) scale(0.1,-0.1)"><path d="M340,5109c-160,-31 -299,-173 -330,-339c-6,-34 -10,-629 -10,-1684c0,-1371 3,-1641 14,-1691c34,-143 138,-256 280,-305c57,-19 81,-20 788,-20h728v-214v-215l-412,-3l-413,-3l-50,-25c-246,-120 -246,-460 0,-580l50,-25h1575h1575l50,25c72,35 138,105 164,173c59,160 -10,332 -164,407l-50,25l-412,3l-413,3v215v214h728c707,0 731,1 788,20c142,49 246,162 280,305c11,50 14,320 14,1691c0,1052 -4,1650 -10,1685c-32,169 -170,307 -340,339c-67,13 -4365,12 -4430,-1zM4741,4899c74,-16 142,-84 158,-158c8,-37 11,-453 11,-1436v-1385h-910h-910v166c0,186 -12,251 -62,347c-17,32 -49,78 -70,101c-21,24 -38,47 -38,51c0,3 84,130 186,281c103,152 191,291 197,309c9,30 -7,75 -197,551c-234,586 -226,544 -112,544c118,0 301,-20 374,-41c347,-97 620,-354 735,-690c41,-118 57,-243 57,-439v-174l-154,-156c-157,-157 -175,-184 -162,-237c9,-38 362,-389 396,-395c57,-10 83,9 267,195c242,243 241,212 23,432l-160,162v194c0,206 -12,312 -50,438c-69,232 -216,460 -391,606c-39,33 -83,70 -98,82l-26,22l105,1c157,0 244,33 336,124c73,73 124,181 124,264v32h-103h-103l-11,-42c-18,-67 -52,-110 -112,-140l-55,-28h-530h-530l-156,154c-157,157 -184,175 -237,161c-17,-4 -88,-67 -183,-161l-156,-154h-530h-530l-55,28c-60,30 -94,73 -112,140l-11,42h-103h-103v-32c0,-83 51,-191 124,-264c92,-91 179,-124 336,-124l105,-1l-26,-22c-15,-12 -59,-49 -98,-82c-175,-146 -322,-374 -391,-606c-38,-126 -50,-232 -50,-438v-194l-160,-162c-218,-220 -219,-189 23,-432c184,-186 210,-205 267,-195c34,6 387,357 396,395c13,53 -5,80 -162,237l-154,156v174c0,196 16,321 57,439c115,336 388,593 735,690c73,21 256,41 374,41c114,0 122,42 -111,-543c-155,-389 -205,-524 -201,-543c4,-14 92,-153 196,-310c105,-156 190,-286 190,-290c0,-3 -17,-26 -38,-50c-21,-23 -53,-69 -70,-101c-50,-96 -62,-161 -62,-347v-166h-910h-910v1385c0,983 3,1399 11,1436c15,69 85,143 150,157c66,15 4302,15 4370,1zM2648,4457l82,-82l-85,-85l-85,-85l-85,85l-85,85l82,82c46,46 85,83 88,83c3,0 42,-37 88,-83zM2422,4043l28,-27v-207v-207l-24,-6c-41,-10 -131,-101 -157,-158c-34,-76 -33,-193 1,-263c75,-154 247,-223 407,-164c68,26 138,92 173,164c34,70 35,187 1,263c-26,57 -116,148 -157,158l-24,6v207v207l30,29c16,16 32,26 35,23c3,-3 82,-196 175,-428c144,-360 168,-426 158,-444c-6,-11 -87,-135 -180,-273l-168,-253h-160h-160l-181,271c-99,149 -178,277 -176,283c156,394 341,846 345,846c3,0 19,-12 34,-27zM2631,3381c55,-56 36,-147 -37,-171c-106,-35 -184,92 -105,171c23,23 38,29 71,29c33,0 48,-6 71,-29zM940,2475l-85,-85l-85,85l-85,85l85,85l85,85l85,-85l85,-85zM4350,2475l-85,-85l-85,85l-85,85l85,85l85,85l85,-85l85,-85zM2785,2409c21,-23 49,-67 64,-98c24,-52 26,-67 29,-223l4,-168h-322h-322l4,168c3,156 5,171 29,223c15,31 43,75 64,98l37,41h188h188zM4905,1580c0,-74 -5,-140 -13,-161c-16,-46 -66,-97 -117,-120c-38,-18 -130,-19 -2215,-19c-2089,0 -2177,1 -2215,19c-50,23 -93,65 -113,111c-16,36 -30,255 -19,285c6,13 247,15 2349,13l2343,-3zM3090,850v-210h-530h-530v210v210h530h530zM4112,407c58,-39 58,-135 0,-174c-26,-17 -90,-18 -1552,-18c-1462,0 -1526,1 -1552,18c-74,50 -50,171 37,189c11,2 700,3 1530,3c1442,0 1511,-1 1537,-18z"></path><path d="M530,4055v-105h110h110v105v105h-110h-110z"></path><path d="M4370,4055v-105h110h110v105v105h-110h-110z"></path><path d="M430,3625v-105h105h105v105v105h-105h-105z"></path><path d="M4480,3625v-105h105h105v105v105h-105h-105z"></path><path d="M1810,1495v-105h320h320v105v105h-320h-320z"></path><path d="M2670,1495v-105h320h320v105v105h-320h-320z"></path></g></g></g></svg>