<svg version="1.1" xmlns="http://www.w3.org/2000/svg" xmlns:xlink="http://www.w3.org/1999/xlink" width="512.000000pt" height="512.000000pt" viewBox="0,0,256,256"><g fill="#ec5242" fill-rule="nonzero" stroke="none" stroke-width="1" stroke-linecap="butt" stroke-linejoin="miter" stroke-miterlimit="10" stroke-dasharray="" stroke-dashoffset="0" font-family="none" font-weight="none" font-size="none" text-anchor="none" style="mix-blend-mode: normal"><g transform="translate(0.0375,-0.01516) scale(0.5,0.5)"><g transform="translate(0,512) scale(0.1,-0.1)"><path d="M378,4989c-171,-40 -322,-209 -363,-404c-22,-104 -22,-2975 0,-3078c43,-203 195,-369 373,-406c66,-14 680,-15 716,-1c61,23 79,112 32,159l-26,26l-348,5c-334,5 -349,6 -388,27c-56,30 -119,103 -146,172l-23,56v960v960l2173,3l2172,2v-510v-510h-37c-46,0 -118,-32 -154,-66l-27,-26l-68,30c-38,16 -79,33 -91,36c-17,5 -23,17 -28,59c-12,88 -55,151 -129,189c-48,25 -223,36 -311,19c-109,-20 -181,-97 -192,-204l-5,-53l-89,-38l-89,-38l-31,27c-54,44 -90,58 -154,58c-41,0 -72,-6 -100,-21c-54,-28 -220,-198 -240,-244c-31,-76 -9,-186 50,-248l25,-26l-39,-89l-39,-90l-53,-5c-62,-7 -103,-26 -140,-67c-53,-57 -63,-88 -67,-230l-4,-133h-310h-310l-29,-29c-49,-49 -35,-128 28,-160c15,-8 156,-11 455,-11h433l38,-90l39,-91l-30,-33c-63,-72 -78,-176 -36,-258c26,-51 185,-205 235,-228c62,-28 133,-26 196,5c28,14 58,34 67,44c16,18 20,17 105,-18l89,-36l11,-65c14,-84 50,-135 120,-172c50,-26 60,-28 183,-28c72,0 148,5 169,11c84,26 146,107 156,205c3,30 11,54 17,54c6,0 47,16 91,35l79,35l31,-30c63,-61 171,-78 250,-40c52,25 220,195 240,243c32,78 13,182 -45,242l-30,31l35,79c19,44 35,86 35,93c0,7 14,12 36,12c65,0 117,22 164,70c59,59 70,98 70,258c0,123 -2,133 -28,183c-38,73 -92,110 -172,118l-62,6l-23,61c-13,34 -30,75 -39,92c-14,27 -14,31 0,43c9,7 29,36 45,64c53,92 37,192 -46,284l-34,37l-3,1125l-3,1124l-27,81c-47,136 -145,261 -246,313c-105,54 0,51 -2112,50c-1092,-1 -1972,-5 -1992,-10zM4353,4784c61,-21 126,-84 163,-160l29,-59l3,-447l3,-448h-2176h-2176l3,438c3,427 4,438 26,493c37,92 111,165 192,190c14,4 894,8 1956,8c1743,1 1935,-1 1977,-15zM3940,2418c0,-49 6,-84 18,-108c15,-32 26,-38 112,-66c52,-17 132,-50 177,-72c46,-23 93,-42 106,-42c28,0 58,20 120,79l47,45l75,-74c41,-41 75,-79 75,-85c0,-6 -22,-33 -50,-60c-27,-27 -55,-64 -61,-82c-10,-31 -7,-42 39,-136c28,-56 60,-134 71,-173c30,-101 50,-117 159,-124l87,-5l3,-99c2,-64 -1,-103 -9,-112c-8,-10 -35,-14 -89,-14c-104,0 -119,-12 -155,-127c-15,-49 -47,-127 -72,-175c-41,-79 -44,-89 -34,-120c6,-19 34,-56 61,-83c28,-27 50,-54 50,-60c0,-13 -142,-155 -156,-155c-5,0 -34,25 -64,55c-74,75 -92,77 -198,22c-48,-25 -126,-57 -174,-71c-115,-35 -128,-51 -128,-156c0,-54 -4,-81 -14,-89c-9,-8 -48,-11 -112,-9l-99,3l-5,87c-7,109 -23,129 -124,159c-39,12 -116,44 -171,71c-91,46 -102,49 -135,39c-19,-6 -57,-33 -85,-61c-27,-27 -54,-50 -60,-50c-6,0 -43,33 -84,74c-81,81 -83,92 -22,135c36,26 71,81 71,111c0,13 -20,62 -44,109c-24,47 -54,120 -66,161c-33,109 -50,124 -158,130l-87,5l-3,113l-3,112h73c49,0 84,6 108,18c32,15 38,26 70,122c20,58 53,136 73,174c20,38 37,78 37,88c0,30 -25,70 -74,118c-25,24 -46,49 -46,54c0,17 133,146 150,146c9,0 34,-18 55,-41c46,-47 84,-69 119,-69c13,0 63,20 109,44c47,25 118,55 159,66c50,15 82,31 101,51c25,27 27,36 27,107c0,43 3,82 7,85c3,4 55,7 115,7h108z"></path><path d="M850,4555c-62,-17 -146,-71 -177,-113c-56,-76 -68,-113 -68,-212c0,-79 4,-103 23,-141c37,-75 87,-125 159,-161c59,-29 77,-33 148,-33c67,0 90,5 140,28c77,36 147,110 175,185c30,78 25,196 -10,267c-70,144 -239,221 -390,180zM1022,4333c61,-55 63,-146 5,-200c-46,-42 -94,-51 -144,-27c-93,46 -110,159 -34,228c41,38 131,37 173,-1z"></path><path d="M1729,4557c-173,-49 -279,-213 -248,-384c21,-114 89,-201 198,-252c79,-37 191,-37 272,1c72,33 134,94 168,167c22,47 26,70 26,141c0,73 -4,93 -28,142c-70,143 -243,226 -388,185zM1900,4331c60,-44 63,-140 6,-197c-44,-44 -92,-52 -148,-25c-54,26 -78,65 -78,125c0,38 6,52 33,82c51,56 125,62 187,15z"></path><path d="M2927,4559c-205,-48 -321,-276 -238,-465c28,-62 104,-139 170,-171l56,-28h530c530,0 530,0 579,23c76,34 129,84 166,153c81,153 36,337 -108,436c-88,61 -114,63 -642,62c-261,-1 -492,-5 -513,-10zM3969,4341c61,-44 78,-123 38,-182c-46,-70 -40,-69 -548,-69c-251,0 -471,3 -489,6c-43,9 -96,63 -104,108c-9,45 21,119 55,137c49,26 89,28 544,26l470,-2z"></path><path d="M3680,2004c-168,-44 -325,-171 -398,-325c-52,-107 -66,-182 -60,-312c4,-81 11,-116 33,-172c73,-183 202,-307 387,-372c94,-34 258,-38 353,-9c208,62 369,223 431,431c27,91 25,240 -4,335c-64,207 -242,377 -444,425c-79,18 -226,18 -298,-1zM4004,1782c258,-121 320,-451 125,-657c-198,-210 -538,-158 -666,102c-31,63 -37,87 -41,157c-5,103 13,171 67,252c49,74 125,132 210,162c95,33 213,27 305,-16z"></path><path d="M1583,2890c-12,-5 -29,-20 -38,-33c-19,-29 -216,-843 -218,-900c-1,-32 4,-44 31,-68c57,-51 137,-30 161,44c23,71 202,834 203,863c0,42 -16,71 -52,89c-32,17 -54,18 -87,5z"></path><path d="M914,2807c-42,-24 -324,-351 -336,-389c-20,-67 -2,-99 158,-279c80,-90 155,-172 166,-181c12,-11 37,-18 62,-18c58,0 96,39 96,97c0,38 -8,50 -130,188c-71,80 -130,150 -130,154c0,4 26,36 58,72c209,236 202,227 202,270c0,76 -81,124 -146,86z"></path><path d="M2022,2795c-35,-30 -45,-69 -27,-110c7,-16 68,-91 134,-165c66,-74 121,-138 121,-141c0,-4 -57,-70 -126,-148c-150,-169 -166,-207 -107,-265c19,-20 36,-26 67,-26c22,0 48,6 57,13c44,33 320,356 330,385c21,63 5,95 -109,225c-59,67 -136,152 -172,190c-57,58 -70,67 -102,67c-24,0 -46,-8 -66,-25z"></path><path d="M1459,1275c-58,-32 -61,-114 -6,-161c26,-22 38,-25 71,-21c56,8 86,44 86,102c0,36 -5,47 -31,69c-34,29 -79,33 -120,11z"></path></g></g></g></svg>