<svg version="1.1" xmlns="http://www.w3.org/2000/svg" xmlns:xlink="http://www.w3.org/1999/xlink" width="512.000000pt" height="512.000000pt" viewBox="0,0,256,256"><g fill="#ec5242" fill-rule="nonzero" stroke="none" stroke-width="1" stroke-linecap="butt" stroke-linejoin="miter" stroke-miterlimit="10" stroke-dasharray="" stroke-dashoffset="0" font-family="none" font-weight="none" font-size="none" text-anchor="none" style="mix-blend-mode: normal"><g transform="translate(0.12509,0.09361) scale(0.5,0.5)"><g transform="translate(0,512) scale(0.1,-0.1)"><path d="M2330,5071c-88,-8 -138,-33 -163,-83c-10,-18 -30,-111 -46,-206c-15,-95 -30,-174 -33,-177c-2,-2 -48,-16 -102,-30c-179,-47 -394,-138 -556,-237l-55,-34l-153,110c-140,100 -159,110 -206,114c-45,3 -57,0 -101,-30c-67,-44 -296,-273 -334,-334c-23,-36 -31,-60 -31,-94c0,-53 13,-77 141,-251l82,-113l-23,-41c-121,-212 -197,-390 -248,-577l-27,-103l-183,-31c-190,-32 -214,-41 -255,-96c-50,-67 -49,-530 1,-597c40,-54 66,-64 254,-95l183,-31l27,-103c50,-184 138,-390 245,-572l26,-45l-93,-129c-125,-175 -130,-184 -130,-237c0,-33 8,-58 30,-92c38,-60 269,-292 335,-335c44,-30 56,-33 101,-30c47,4 66,14 206,114l153,110l55,-34c162,-99 377,-190 556,-237c54,-14 100,-28 102,-30c3,-3 18,-82 33,-177c16,-95 36,-188 46,-206c27,-52 70,-72 179,-83c112,-10 145,0 163,52c14,40 15,716 1,753c-15,40 -48,54 -154,66c-214,23 -405,79 -585,171c-453,232 -762,638 -873,1149c-19,91 -22,134 -22,320c0,186 3,229 22,320c50,228 149,457 275,637c34,48 116,142 182,208c282,283 628,444 1033,481c56,5 80,12 100,29l27,23l3,359c2,239 0,370 -8,395c-11,39 -51,69 -87,66c-10,0 -52,-4 -93,-7z"></path><path d="M3182,4874c-126,-63 -178,-211 -118,-339c23,-50 78,-107 122,-127l24,-11v-279c0,-181 -4,-286 -11,-300c-22,-41 -65,-48 -294,-48h-215v-86v-86l253,4c286,3 297,6 371,88c65,72 66,77 66,407l1,298l52,30c98,57 145,177 112,290c-44,154 -220,231 -363,159z"></path><path d="M4055,4096c-60,-28 -97,-66 -124,-126c-27,-59 -28,-159 -2,-215c19,-43 95,-119 130,-130c21,-6 21,-10 21,-246v-241l-29,-29l-29,-29h-666h-666v-85v-86l693,3c776,3 718,-2 797,79c64,66 70,98 70,380v247l30,12c43,18 100,77 123,129c42,94 16,221 -60,293c-73,69 -195,88 -288,44z"></path><path d="M2365,3853c-494,-62 -911,-394 -1074,-856c-100,-283 -100,-591 0,-874c167,-472 595,-807 1100,-858c61,-6 68,-5 95,18l29,25v1252v1252l-28,24c-28,24 -48,27 -122,17z"></path><path d="M2690,3340v-91l449,3l449,3l26,24c26,24 34,68 20,106c-17,43 -40,45 -504,45h-440z"></path><path d="M4790,2811c-70,-23 -149,-90 -165,-140l-6,-21h-965h-964v-90v-90h964h965l6,-21c11,-33 74,-98 119,-122c32,-17 58,-22 116,-22c85,0 133,20 186,77c54,57 69,95 69,178c0,54 -6,85 -19,110c-26,49 -74,98 -121,122c-43,22 -144,33 -185,19z"></path><path d="M2690,2125v-85h666h666l29,-29l29,-29v-241c0,-236 0,-240 -21,-246c-35,-11 -111,-87 -130,-130c-12,-26 -19,-64 -19,-105c0,-151 106,-260 255,-260c146,0 257,111 258,255c0,101 -62,201 -143,235l-30,12v247c0,282 -6,314 -70,380c-79,81 -21,76 -797,79l-693,3z"></path><path d="M2690,1780v-90h440c464,0 487,2 504,45c14,38 6,82 -20,106l-26,24l-449,3l-449,3z"></path><path d="M2690,1431v-91h235h236l24,-25l25,-24v-284v-284l-24,-11c-44,-20 -99,-77 -122,-127c-81,-173 43,-365 235,-365c80,0 134,24 190,85c109,118 81,311 -56,390l-52,30l-1,298c0,330 -1,335 -66,407c-74,82 -85,85 -371,88l-253,4z"></path></g></g></g></svg>